<svg width="1927" height="344" viewBox="0 0 1927 344" fill="none" xmlns="http://www.w3.org/2000/svg">
<path d="M1191.57 176.251C1191.57 130.322 1191.57 84.3936 1191.57 38.465C1191.57 26.9828 1195.59 22.9641 1207.07 22.9641C1273.67 22.9641 1340.84 22.9641 1407.43 22.9641C1422.36 22.9641 1436.71 25.2606 1451.07 30.4275C1459.1 33.2981 1467.14 36.7427 1474.6 41.3355C1487.23 49.373 1495.27 61.4293 1501.59 74.6338C1506.18 85.5418 1508.48 97.598 1510.77 109.08C1513.07 122.285 1512.49 134.915 1513.07 148.119C1513.07 173.954 1513.64 199.215 1513.07 225.05C1512.49 236.532 1510.2 247.44 1508.48 258.922C1506.75 271.553 1501.01 282.461 1494.12 293.369C1486.09 305.425 1474.6 313.462 1460.83 319.203C1453.36 322.074 1445.32 324.37 1437.86 326.667C1436.14 327.241 1434.99 327.241 1433.27 327.815C1418.34 328.389 1403.41 329.537 1388.49 329.537C1332.8 329.537 1277.69 329.537 1222 329.537C1215.68 329.537 1208.79 330.111 1202.48 328.963C1195.59 327.815 1193.87 323.796 1193.29 316.907C1193.29 305.425 1193.29 294.517 1193.29 283.035C1190.99 246.866 1190.99 211.845 1191.57 176.251ZM1258.74 175.677C1258.74 177.973 1258.74 180.27 1258.74 182.566C1258.74 209.549 1258.74 237.106 1258.74 264.089C1258.74 269.83 1259.31 270.404 1265.05 270.404C1270.8 270.404 1275.96 270.404 1281.7 270.404C1326.48 269.256 1370.69 272.701 1415.47 268.108C1425.8 266.96 1433.84 261.793 1439.01 253.181C1446.47 242.273 1447.62 229.643 1447.05 217.586C1447.05 183.14 1449.92 148.694 1444.75 114.247C1443.6 106.784 1440.73 99.8945 1435.56 94.1534C1426.95 84.9677 1414.9 82.0972 1403.41 82.0972C1357.49 81.5231 1310.98 81.523 1265.05 81.523C1258.74 81.523 1258.74 81.5231 1258.74 87.8382C1258.74 117.692 1258.74 146.971 1258.74 175.677Z" fill="#393959"/>
<path d="M1729.51 22.964C1758.21 22.964 1780.03 22.3899 1801.27 22.964C1810.46 23.5381 1819.64 26.4087 1829.4 27.5569C1840.88 29.2792 1851.22 33.872 1860.98 40.7613C1872.46 48.7988 1882.22 58.5587 1887.96 71.7631C1891.98 80.3747 1893.7 88.9863 1896.57 97.5979C1900.02 109.08 1898.29 121.136 1899.44 132.618C1900.02 137.211 1896 140.656 1891.41 140.656C1875.33 140.656 1858.68 140.656 1842.61 140.656C1836.29 140.656 1833.99 137.785 1833.99 131.47C1833.42 122.285 1833.42 113.099 1831.12 104.487C1829.4 95.3015 1821.36 86.6899 1809.88 83.8194C1796.68 80.3747 1784.05 82.097 1770.84 81.5229C1739.84 80.9488 1708.84 80.9488 1677.84 81.5229C1668.65 81.5229 1659.47 84.3935 1652 90.7087C1645.69 95.8756 1643.39 103.339 1642.82 110.802C1642.24 153.86 1642.24 196.344 1642.82 239.402C1642.82 253.755 1653.15 266.385 1669.8 267.534C1711.71 270.404 1753.62 268.682 1796.1 268.682C1802.99 268.682 1809.88 267.534 1816.77 264.663C1825.38 260.644 1829.98 253.181 1831.7 244.569C1832.85 235.384 1833.42 226.198 1833.99 216.438C1834.57 208.975 1838.01 205.53 1844.9 205.53C1859.83 205.53 1874.76 205.53 1890.26 205.53C1897.15 205.53 1899.44 207.827 1899.44 214.716C1899.44 223.902 1900.02 233.087 1898.87 242.273C1898.29 249.162 1897.15 256.051 1894.85 262.367C1891.41 271.552 1887.39 281.312 1882.22 289.35C1877.05 296.813 1870.16 303.128 1862.7 309.443C1854.66 316.333 1844.9 319.777 1834.57 323.222C1829.98 324.944 1824.81 326.093 1820.22 326.667C1811.03 327.815 1801.27 328.389 1792.08 328.389C1755.92 328.389 1719.75 328.963 1683.58 328.389C1671.52 328.389 1660.04 326.093 1647.98 324.37C1630.76 322.074 1616.41 314.036 1603.78 302.554C1594.02 293.943 1587.13 283.035 1582.54 270.404C1575.65 252.033 1573.92 232.513 1574.5 212.993C1574.5 184.288 1574.5 155.009 1574.5 126.303C1574.5 115.969 1575.07 105.635 1577.37 95.8756C1583.11 73.4854 1593.44 52.8176 1614.11 40.1872C1621.57 35.5944 1630.19 31.5756 1638.8 28.7051C1645.69 26.4087 1653.15 26.9828 1660.61 25.2605C1685.87 20.0935 1711.71 25.2604 1729.51 22.964Z" fill="#393959"/>
<path d="M1128.42 328.963C1113.49 328.963 1098.56 328.963 1083.64 328.963C1075.02 328.963 1068.71 326.667 1063.54 319.777C1052.06 305.425 1041.15 291.646 1029.67 277.294C1024.5 270.978 1019.34 264.089 1013.6 257.774C1007.28 249.736 1000.39 241.699 993.502 233.661C990.631 230.217 987.761 226.198 984.89 222.753C981.445 218.161 979.723 218.161 976.278 222.179C965.37 235.384 954.462 248.588 943.554 261.793C936.091 270.404 928.627 279.016 921.164 288.202C912.552 298.536 904.515 308.295 896.478 319.203C891.885 324.944 886.144 328.389 879.254 328.389C862.605 328.963 845.382 328.963 828.733 328.963C825.862 328.963 822.418 327.815 819.547 326.667C815.528 324.944 814.38 319.777 817.251 315.759C825.862 304.851 834.474 294.517 843.66 283.609C859.161 265.237 875.236 246.292 890.736 227.92C905.663 210.123 920.59 192.326 936.091 174.528C938.387 171.658 938.961 169.361 936.091 166.491C922.886 150.99 910.256 134.915 897.052 119.414C888.44 109.08 879.254 99.8945 870.643 89.5605C864.902 83.2453 859.735 76.3561 853.994 69.4668C845.956 59.707 837.919 50.5212 829.881 41.3355C828.733 40.1873 827.011 38.465 826.436 37.3168C825.288 34.4463 823.566 30.4275 824.714 28.7052C827.011 25.8346 831.029 23.5382 834.474 23.5382C849.401 22.9641 864.328 23.5382 879.254 23.5382C882.699 23.5382 886.144 23.5382 889.588 23.5382C894.755 23.5382 899.922 25.8346 903.367 29.8534C914.849 43.632 926.905 57.9846 938.387 71.7632C946.425 81.523 955.036 91.8569 963.074 101.617C967.667 107.358 972.834 113.099 977.427 119.414C979.723 121.711 980.871 122.859 983.168 119.414C991.205 109.08 999.817 99.3204 1007.85 88.9864C1017.04 77.5043 1026.23 65.448 1035.99 53.9659C1042.3 45.9284 1049.19 37.8909 1056.08 29.8534C1060.1 25.2605 1065.27 22.9641 1071.58 22.9641C1088.23 22.9641 1105.45 22.9641 1122.1 22.9641C1123.82 22.9641 1124.97 22.9641 1126.69 22.9641C1134.16 24.1123 1137.03 29.8534 1132.44 36.1686C1127.27 43.0579 1121.53 49.373 1116.36 55.6882C1100.86 74.0596 1085.93 91.8569 1070.43 110.228C1059.52 123.433 1048.62 136.637 1037.71 149.842C1033.12 155.009 1029.1 160.75 1024.5 165.343C1021.63 168.213 1021.63 171.084 1024.5 174.528C1032.54 184.288 1040.58 194.048 1048.62 203.234C1058.95 215.864 1069.28 228.494 1079.62 240.551C1090.53 253.181 1101.43 265.811 1112.34 278.442C1121.53 289.35 1130.71 300.258 1139.9 311.166C1141.05 312.888 1142.2 314.611 1142.77 316.333C1145.07 321.5 1143.34 325.519 1137.6 326.667C1134.16 327.815 1131.29 328.389 1127.84 328.963C1128.42 330.111 1128.42 329.537 1128.42 328.963Z" fill="#393959"/>
<path d="M322.297 340H154.703C87.0667 340 32 286.371 32 220.5C32 154.629 87.0667 101 154.703 101H322.297C389.933 101 445 154.629 445 220.5C445 286.371 389.933 340 322.297 340Z" fill="url(#paint0_linear_480_12)"/>
<path fill-rule="evenodd" clip-rule="evenodd" d="M425 220C425 276.333 379.333 322 323 322C266.667 322 221 276.333 221 220C221 163.667 266.667 118 323 118C379.333 118 425 163.667 425 220ZM380 219.5C380 250.152 355.152 275 324.5 275C293.848 275 269 250.152 269 219.5C269 188.848 293.848 164 324.5 164C355.152 164 380 188.848 380 219.5Z" fill="#393959"/>
<path d="M492.307 220.456C492.307 190.602 492.307 161.323 492.307 131.469C492.307 122.283 494.029 120.561 503.215 120.561C513.548 120.561 524.457 120.561 534.79 120.561C541.68 120.561 543.402 122.283 544.55 129.173C544.55 130.895 544.55 132.043 544.55 133.766C544.55 136.636 545.698 137.784 548.569 135.488C561.773 125.154 576.126 119.987 592.775 120.561C611.721 121.135 630.092 119.413 649.038 121.135C669.706 122.858 687.503 131.469 698.411 149.841C701.856 155.582 703.004 161.897 704.726 168.786C709.893 186.583 707.023 204.381 707.597 222.178C708.171 250.309 707.597 279.015 707.597 307.146C707.597 319.776 706.449 320.925 693.818 320.925C684.632 320.925 676.021 320.925 666.835 320.925C659.946 320.925 654.779 316.332 654.779 310.016C654.779 298.534 654.779 286.478 654.779 274.996C654.779 248.013 654.779 221.03 654.779 194.047C654.779 188.88 654.779 183.713 653.631 179.12C652.482 175.101 649.612 171.083 646.741 169.36C643.297 167.064 638.704 165.916 634.685 165.916C611.147 165.341 588.182 165.916 564.644 165.916C554.884 165.916 544.55 175.675 544.55 184.861C545.124 202.084 543.976 219.882 543.976 237.105C543.976 261.217 543.976 285.33 543.976 309.442C543.976 316.906 541.106 320.925 534.216 321.499C527.901 322.073 521.012 321.499 514.697 321.499C510.678 321.499 506.659 321.499 502.64 321.499C496.325 321.499 491.732 317.48 491.732 311.165C492.307 280.737 492.307 250.883 492.307 220.456Z" fill="#393959"/>
<defs>
<linearGradient id="paint0_linear_480_12" x1="32.1035" y1="220.406" x2="445.104" y2="220.406" gradientUnits="userSpaceOnUse">
<stop stop-color="#5FCBCE"/>
<stop offset="1" stop-color="#2858EA"/>
</linearGradient>
</defs>
</svg>
