<svg class="h-8 w-auto sm:h-11" viewBox="0 0 368 74" fill="none"><path d="M114.973 40.205c0 3.845-1.241 7.049-3.713 9.61-2.482 2.56-5.611 3.843-9.379 3.843-3.776 0-6.905-1.283-9.38-3.843-2.475-2.562-3.712-5.766-3.712-9.61V23.323h3.952v17.379c0 2.499.907 4.643 2.742 6.431 1.825 1.784 3.958 2.683 6.398 2.683 2.44 0 4.57-.898 6.398-2.683 1.828-1.788 2.742-3.932 2.742-6.431V23.323h3.952v16.882zM149.665 52.931h-3.944V35.633c0-2.496-.914-4.641-2.742-6.44-1.828-1.799-3.958-2.704-6.402-2.704-2.472 0-4.62.904-6.451 2.704-1.828 1.8-2.742 3.944-2.742 6.44v17.298h-3.945V36.048c0-3.843 1.245-7.038 3.737-9.582 2.493-2.545 5.628-3.819 9.401-3.819 3.74 0 6.859 1.274 9.355 3.819 2.489 2.544 3.733 5.739 3.733 9.582v16.883zM200.578 52.931h-4.105V34.753c0-2.288-.661-4.244-1.978-5.87-1.313-1.628-3.043-2.445-5.194-2.445-2.18 0-4.059.71-5.634 2.131-1.581 1.42-2.362 3.19-2.362 5.3v19.063h-4.154V33.87c0-2.11-.796-3.88-2.367-5.3-1.579-1.42-3.456-2.13-5.635-2.13-2.152 0-3.86.806-5.144 2.416-1.283 1.61-1.923 3.578-1.923 5.898v18.178h-4.1v-17.71c0-3.708 1.055-6.684 3.164-8.939 1.976-2.113 4.57-3.305 7.791-3.586 4.296-.34 7.721 1.494 10.289 5.51 2.564-4.016 5.987-5.85 10.285-5.51 3.22.281 5.831 1.473 7.847 3.586 2.144 2.256 3.22 5.231 3.22 8.938v17.711zM239.377 38.076V52.93h-3.949v-4.626c-3.209 3.68-7.141 5.441-11.795 5.301-4.07-.14-7.537-1.716-10.398-4.724-2.868-3.015-4.297-6.599-4.297-10.754 0-4.328 1.541-8.04 4.621-11.144 3.082-3.099 6.77-4.563 11.066-4.39 4.158.14 7.685 1.725 10.596 4.754 2.91 3.03 4.297 6.607 4.156 10.73zm-3.949-.286c-.066-3.124-1.178-5.8-3.329-8.02-2.155-2.22-4.739-3.333-7.759-3.333-3.157 0-5.851 1.113-8.067 3.333-2.222 2.22-3.352 4.912-3.387 8.066-.067 3.128.963 5.86 3.097 8.204 2.138 2.342 4.711 3.585 7.734 3.726 3.257.134 6.041-1.002 8.354-3.41 2.309-2.415 3.427-5.27 3.357-8.566zM259.323 26.7c-1.834.068-3.318.571-4.464 1.504-1.146.938-1.92 1.753-2.334 2.438-.666 1.146-.989 2.67-.989 4.574V52.93h-4.157V23.323h3.687v4.21c.833-1.597 2.057-2.827 3.688-3.69 1.491-.8 3.01-1.163 4.57-1.09v3.946h-.001zM283.061 44.104c.211 2.664-.723 4.979-2.804 6.931-2.075 1.96-4.466 2.853-7.166 2.677-2.495-.174-4.581-1.178-6.262-3.017-1.684-1.835-2.514-4.014-2.514-6.541h4.096v.993c0 1.017.56 2.065 1.664 3.145 1.113 1.089 2.288 1.609 3.536 1.576 1.659-.03 2.975-.539 3.947-1.51.861-.904 1.32-2.084 1.348-3.547.034-2.538-1.406-4.271-4.316-5.21l-3.474-1.104c-3.637-1.142-5.541-3.621-5.714-7.432-.105-2.287.668-4.242 2.32-5.874 1.645-1.624 3.639-2.495 5.967-2.597 2.011-.101 3.896.546 5.653 1.947 1.753 1.402 2.695 3.143 2.836 5.223v.879h-4.155v-.681c0-1.049-.438-1.901-1.318-2.549-.887-.65-1.898-.976-3.044-.976a4.284 4.284 0 00-2.883 1.201c-.815.766-1.237 1.724-1.273 2.874-.138 2.125 1.125 3.637 3.793 4.54l3.429 1.149c3.943 1.355 6.056 3.987 6.334 7.903zM317.143 52.931h-3.951V35.684c0-2.492-.929-4.649-2.771-6.467-1.856-1.814-4.022-2.693-6.497-2.623-2.518.038-4.641.872-6.37 2.518-1.729 1.648-2.596 3.733-2.596 6.26v17.56h-3.952V12.88h3.952v14.65c2.258-2.94 5.155-4.5 8.698-4.675 3.677-.176 6.841 1.04 9.498 3.633 2.658 2.601 3.988 5.804 3.988 9.614v16.83h.001zM355.477 38.076V52.93h-3.951v-4.626c-3.2 3.68-7.138 5.441-11.793 5.301-4.069-.14-7.537-1.716-10.397-4.724-2.869-3.015-4.298-6.599-4.298-10.754 0-4.328 1.541-8.04 4.621-11.144 3.086-3.099 6.77-4.563 11.067-4.39 4.154.14 7.684 1.725 10.595 4.754 2.91 3.03 4.288 6.607 4.156 10.73zm-3.952-.286c-.07-3.124-1.176-5.8-3.327-8.02-2.157-2.22-4.739-3.333-7.763-3.333-3.155 0-5.85 1.113-8.071 3.333-2.214 2.22-3.347 4.912-3.381 8.066-.07 3.128.962 5.86 3.1 8.204 2.138 2.342 4.711 3.585 7.734 3.726 3.263.134 6.047-1.002 8.353-3.41 2.314-2.415 3.426-5.27 3.355-8.566zM367.731 12.88h-3.943v40.051h3.943v-40.05z" fill="#111"></path><path d="M63.824 34.1c-.042-1.655-.088-3.217-.088-4.772V.466H4.006l11.587 6.275h41.871v22.586c0 1.643.046 3.321.091 4.941.166 6.152.337 12.513-1.955 17.835A25.045 25.045 0 0132.594 67.26c-12.188 0-22.366-7.832-25.327-19.489-.882-3.48-.766-7.075-.64-10.886.042-1.344.084-2.732.084-4.126V17.79L.44 14.472V32.76c0 1.292-.046 2.63-.084 3.922-.133 4.075-.267 8.291.833 12.634C4.862 63.8 17.49 73.534 32.593 73.534a31.302 31.302 0 0028.765-18.948c2.845-6.589 2.652-13.655 2.466-20.487z" fill="#34D399"></path><path d="M13.543 42.866c0 .12.007.237.021.357.668 5.925 5.438 17.143 18.713 17.143 13.472 0 17.332-11.39 17.494-17.415 0-.028.004-.055.004-.085V15.344a3.141 3.141 0 00-3.14-3.14H25.679l11.584 6.276H43.5v24.333c-.057 1.278-.795 11.277-11.222 11.277-10.371 0-12.213-9.67-12.463-11.426V24.726l-6.212-3.29c-.035.19-.06.384-.06.586v20.844z" fill="#34D399"></path><path d="M13.613 21.375c-.01.02-.003.044-.01.062l6.212 3.29-6.202-3.352z" fill="#34D399"></path></svg>